<?xml version="1.0" standalone="yes"?>

<svg version="1.1" viewBox="0.0 0.0 596.7034120734908 322.1968503937008" fill="none" stroke="none" stroke-linecap="square" stroke-miterlimit="10" xmlns="http://www.w3.org/2000/svg" xmlns:xlink="http://www.w3.org/1999/xlink"><clipPath id="p.0"><path d="m0 0l596.7034 0l0 322.19684l-596.7034 0l0 -322.19684z" clip-rule="nonzero"></path></clipPath><g clip-path="url(#p.0)"><path fill="#000000" fill-opacity="0.0" d="m0 0l596.7034 0l0 322.19684l-596.7034 0z" fill-rule="evenodd"></path><path fill="#cfe2f3" d="m17.005249 46.58499l0 0c0 -16.200182 13.132841 -29.333023 29.333023 -29.333023l505.90088 0c7.779602 0 15.240601 3.090435 20.741577 8.591444c5.5010376 5.501009 8.591492 12.961977 8.591492 20.74158l0 228.54654c0 16.200195 -13.132874 29.333038 -29.333069 29.333038l-505.90088 0l0 0c-16.200182 0 -29.333023 -13.132843 -29.333023 -29.333038z" fill-rule="evenodd"></path><path stroke="#000000" stroke-width="1.0" stroke-linejoin="round" stroke-linecap="butt" d="m17.005249 46.58499l0 0c0 -16.200182 13.132841 -29.333023 29.333023 -29.333023l505.90088 0c7.779602 0 15.240601 3.090435 20.741577 8.591444c5.5010376 5.501009 8.591492 12.961977 8.591492 20.74158l0 228.54654c0 16.200195 -13.132874 29.333038 -29.333069 29.333038l-505.90088 0l0 0c-16.200182 0 -29.333023 -13.132843 -29.333023 -29.333038z" fill-rule="evenodd"></path><path fill="#000000" d="m35.987225 46.778267l0 -13.59375l1.796875 0l0 6.734375l6.765625 -6.734375l2.4375 0l-5.703125 5.5l5.953125 8.09375l-2.375 0l-4.84375 -6.890625l-2.234375 2.171875l0 4.71875l-1.796875 0zm18.756073 0l0 -1.453125q-1.140625 1.671875 -3.125 1.671875q-0.859375 0 -1.625 -0.328125q-0.75 -0.34375 -1.125 -0.84375q-0.359375 -0.5 -0.515625 -1.234375q-0.09375 -0.5 -0.09375 -1.5625l0 -6.109375l1.671875 0l0 5.46875q0 1.3125 0.09375 1.765625q0.15625 0.65625 0.671875 1.03125q0.515625 0.375 1.265625 0.375q0.75 0 1.40625 -0.375q0.65625 -0.390625 0.921875 -1.046875q0.28125 -0.671875 0.28125 -1.9375l0 -5.28125l1.671875 0l0 9.859375l-1.5 0zm5.469467 0l-1.546875 0l0 -13.59375l1.65625 0l0 4.84375q1.0625 -1.328125 2.703125 -1.328125q0.90625 0 1.7187462 0.375q0.8125 0.359375 1.328125 1.03125q0.53125 0.65625 0.828125 1.59375q0.296875 0.9375 0.296875 2.0q0 2.53125 -1.25 3.921875q-1.25 1.375 -2.9999962 1.375q-1.75 0 -2.734375 -1.453125l0 1.234375zm-0.015625 -5.0q0 1.765625 0.46875 2.5625q0.796875 1.28125 2.140625 1.28125q1.09375 0 1.8906212 -0.9375q0.796875 -0.953125 0.796875 -2.84375q0 -1.921875 -0.765625 -2.84375q-0.7656212 -0.921875 -1.8437462 -0.921875q-1.09375 0 -1.890625 0.953125q-0.796875 0.953125 -0.796875 2.75zm15.594463 1.828125l1.71875 0.21875q-0.40625 1.5 -1.515625 2.34375q-1.09375 0.828125 -2.8125 0.828125q-2.15625 0 -3.421875 -1.328125q-1.265625 -1.328125 -1.265625 -3.734375q0 -2.484375 1.265625 -3.859375q1.28125 -1.375 3.328125 -1.375q1.984375 0 3.234375 1.34375q1.25 1.34375 1.25 3.796875q0 0.140625 -0.015625 0.4375l-7.34375 0q0.09375 1.625 0.921875 2.484375q0.828125 0.859375 2.0625 0.859375q0.90625 0 1.546875 -0.46875q0.65625 -0.484375 1.046875 -1.546875zm-5.484375 -2.703125l5.5 0q-0.109375 -1.234375 -0.625 -1.859375q-0.796875 -0.96875 -2.078125 -0.96875q-1.140625 0 -1.9375 0.78125q-0.78125 0.765625 -0.859375 2.046875zm9.094467 5.875l0 -9.859375l1.5 0l0 1.5q0.578125 -1.046875 1.0625 -1.375q0.484375 -0.34375 1.078125 -0.34375q0.84375 0 1.71875 0.546875l-0.578125 1.546875q-0.609375 -0.359375 -1.234375 -0.359375q-0.546875 0 -0.984375 0.328125q-0.421875 0.328125 -0.609375 0.90625q-0.28125 0.890625 -0.28125 1.953125l0 5.15625l-1.671875 0zm6.228302 0l0 -9.859375l1.5 0l0 1.40625q1.09375 -1.625 3.140625 -1.625q0.890625 0 1.640625 0.328125q0.75 0.3125 1.109375 0.84375q0.375 0.515625 0.53125 1.21875q0.09375 0.46875 0.09375 1.625l0 6.0625l-1.671875 0l0 -6.0q0 -1.015625 -0.203125 -1.515625q-0.1875 -0.515625 -0.6875 -0.8125q-0.5 -0.296875 -1.171875 -0.296875q-1.0625 0 -1.84375 0.671875q-0.765625 0.671875 -0.765625 2.578125l0 5.375l-1.671875 0zm17.125717 -3.171875l1.71875 0.21875q-0.40625 1.5 -1.515625 2.34375q-1.09375 0.828125 -2.8125 0.828125q-2.15625 0 -3.421875 -1.328125q-1.265625 -1.328125 -1.265625 -3.734375q0 -2.484375 1.265625 -3.859375q1.28125 -1.375 3.328125 -1.375q1.984375 0 3.234375 1.34375q1.25 1.34375 1.25 3.796875q0 0.140625 -0.015625 0.4375l-7.34375 0q0.09375 1.625 0.921875 2.484375q0.828125 0.859375 2.0625 0.859375q0.90625 0 1.546875 -0.46875q0.65625 -0.484375 1.046875 -1.546875zm-5.484375 -2.703125l5.5 0q-0.109375 -1.234375 -0.625 -1.859375q-0.796875 -0.96875 -2.078125 -0.96875q-1.140625 0 -1.9375 0.78125q-0.78125 0.765625 -0.859375 2.046875zm12.766342 4.375l0.234375 1.484375q-0.703125 0.140625 -1.265625 0.140625q-0.90625 0 -1.40625 -0.28125q-0.5 -0.296875 -0.703125 -0.75q-0.203125 -0.46875 -0.203125 -1.984375l0 -5.65625l-1.234375 0l0 -1.3125l1.234375 0l0 -2.4375l1.65625 -1.0l0 3.4375l1.6875 0l0 1.3125l-1.6875 0l0 5.75q0 0.71875 0.078125 0.921875q0.09375 0.203125 0.296875 0.328125q0.203125 0.125 0.578125 0.125q0.265625 0 0.734375 -0.078125zm8.277054 -1.671875l1.71875 0.21875q-0.40625 1.5 -1.515625 2.34375q-1.09375 0.828125 -2.8125 0.828125q-2.15625 0 -3.421875 -1.328125q-1.265625 -1.328125 -1.265625 -3.734375q0 -2.484375 1.265625 -3.859375q1.28125 -1.375 3.328125 -1.375q1.984375 0 3.234375 1.34375q1.25 1.34375 1.25 3.796875q0 0.140625 -0.015625 0.4375l-7.34375 0q0.09375 1.625 0.921875 2.484375q0.828125 0.859375 2.0625 0.859375q0.90625 0 1.546875 -0.46875q0.65625 -0.484375 1.046875 -1.546875zm-5.484375 -2.703125l5.5 0q-0.109375 -1.234375 -0.625 -1.859375q-0.796875 -0.96875 -2.078125 -0.96875q-1.140625 0 -1.9375 0.78125q-0.78125 0.765625 -0.859375 2.046875zm8.438217 2.9375l1.65625 -0.265625q0.140625 1.0 0.765625 1.53125q0.640625 0.515625 1.78125 0.515625q1.15625 0 1.703125 -0.46875q0.5625 -0.46875 0.5625 -1.09375q0 -0.5625 -0.484375 -0.890625q-0.34375 -0.21875 -1.703125 -0.5625q-1.84375 -0.46875 -2.5625 -0.796875q-0.703125 -0.34375 -1.078125 -0.9375q-0.359375 -0.609375 -0.359375 -1.328125q0 -0.65625 0.296875 -1.21875q0.3125 -0.5625 0.828125 -0.9375q0.390625 -0.28125 1.0625 -0.484375q0.671875 -0.203125 1.4375 -0.203125q1.171875 0 2.046875 0.34375q0.8750076 0.328125 1.2812576 0.90625q0.421875 0.5625 0.578125 1.515625l-1.6250076 0.21875q-0.109375 -0.75 -0.65625 -1.171875q-0.53125 -0.4375 -1.5 -0.4375q-1.15625 0 -1.640625 0.390625q-0.484375 0.375 -0.484375 0.875q0 0.328125 0.203125 0.59375q0.203125 0.265625 0.640625 0.4375q0.25 0.09375 1.46875 0.4375q1.765625 0.46875 2.46875 0.765625q0.7031326 0.296875 1.0937576 0.875q0.40625 0.578125 0.40625 1.4375q0 0.828125 -0.484375 1.578125q-0.484375 0.734375 -1.4062576 1.140625q-0.921875 0.390625 -2.078125 0.390625q-1.921875 0 -2.9375 -0.796875q-1.0 -0.796875 -1.28125 -2.359375zm15.386436 2.9375l0 -13.59375l1.84375 0l7.140625 10.671875l0 -10.671875l1.71875 0l0 13.59375l-1.84375 0l-7.140625 -10.6875l0 10.6875l-1.71875 0zm12.644821 -4.921875q0 -2.734375 1.53125 -4.0625q1.265625 -1.09375 3.09375 -1.09375q2.03125 0 3.3125 1.34375q1.296875 1.328125 1.296875 3.671875q0 1.90625 -0.578125 3.0q-0.5625 1.078125 -1.65625 1.6875q-1.078125 0.59375 -2.375 0.59375q-2.0625 0 -3.34375 -1.328125q-1.28125 -1.328125 -1.28125 -3.8125zm1.71875 0q0 1.890625 0.828125 2.828125q0.828125 0.9375 2.078125 0.9375q1.25 0 2.0625 -0.9375q0.828125 -0.953125 0.828125 -2.890625q0 -1.828125 -0.828125 -2.765625q-0.828125 -0.9375 -2.0625 -0.9375q-1.25 0 -2.078125 0.9375q-0.828125 0.9375 -0.828125 2.828125zm15.672592 4.921875l0 -1.25q-0.9375 1.46875 -2.75 1.46875q-1.171875 0 -2.171875 -0.640625q-0.984375 -0.65625 -1.53125 -1.8125q-0.53125 -1.171875 -0.53125 -2.6875q0 -1.46875 0.484375 -2.671875q0.5 -1.203125 1.46875 -1.84375q0.984375 -0.640625 2.203125 -0.640625q0.890625 0 1.578125 0.375q0.703125 0.375 1.140625 0.984375l0 -4.875l1.65625 0l0 13.59375l-1.546875 0zm-5.28125 -4.921875q0 1.890625 0.796875 2.828125q0.8125 0.9375 1.890625 0.9375q1.09375 0 1.859375 -0.890625q0.765625 -0.890625 0.765625 -2.734375q0 -2.015625 -0.78125 -2.953125q-0.78125 -0.953125 -1.921875 -0.953125q-1.109375 0 -1.859375 0.90625q-0.75 0.90625 -0.75 2.859375zm16.016342 1.75l1.71875 0.21875q-0.40625 1.5 -1.515625 2.34375q-1.09375 0.828125 -2.8125 0.828125q-2.15625 0 -3.421875 -1.328125q-1.265625 -1.328125 -1.265625 -3.734375q0 -2.484375 1.265625 -3.859375q1.28125 -1.375 3.328125 -1.375q1.984375 0 3.234375 1.34375q1.25 1.34375 1.25 3.796875q0 0.140625 -0.015625 0.4375l-7.34375 0q0.09375 1.625 0.921875 2.484375q0.828125 0.859375 2.0625 0.859375q0.90625 0 1.546875 -0.46875q0.65625 -0.484375 1.046875 -1.546875zm-5.484375 -2.703125l5.5 0q-0.109375 -1.234375 -0.625 -1.859375q-0.796875 -0.96875 -2.078125 -0.96875q-1.140625 0 -1.9375 0.78125q-0.78125 0.765625 -0.859375 2.046875z" fill-rule="nonzero"></path><path fill="#f4cccc" d="m37.44882 82.14211l0 0c0 -12.673767 10.27412 -22.947887 22.947887 -22.947887l291.14362 0c6.086151 0 11.923035 2.417717 16.226593 6.721279c4.3035583 4.303566 6.721283 10.14045 6.721283 16.226608l0 178.79712c0 12.673767 -10.274109 22.947906 -22.947876 22.947906l-291.14362 0l0 0c-12.673767 0 -22.947887 -10.274139 -22.947887 -22.947906z" fill-rule="evenodd"></path><path stroke="#000000" stroke-width="1.0" stroke-linejoin="round" stroke-linecap="butt" d="m37.44882 82.14211l0 0c0 -12.673767 10.27412 -22.947887 22.947887 -22.947887l291.14362 0c6.086151 0 11.923035 2.417717 16.226593 6.721279c4.3035583 4.303566 6.721283 10.14045 6.721283 16.226608l0 178.79712c0 12.673767 -10.274109 22.947906 -22.947876 22.947906l-291.14362 0l0 0c-12.673767 0 -22.947887 -10.274139 -22.947887 -22.947906z" fill-rule="evenodd"></path><path fill="#000000" d="m54.638775 90.46068l0 -13.59375l5.125 0q1.359375 0 2.078125 0.125q1.0 0.171875 1.671875 0.640625q0.6718788 0.46875 1.0781288 1.3125q0.421875 0.84375 0.421875 1.84375q0 1.734375 -1.1093788 2.9375q-1.09375 1.203125 -3.984375 1.203125l-3.484375 0l0 5.53125l-1.796875 0zm1.796875 -7.140625l3.515625 0q1.75 0 2.46875 -0.640625q0.734375 -0.65625 0.734375 -1.828125q0 -0.859375 -0.4375 -1.46875q-0.421875 -0.609375 -1.125 -0.796875q-0.453125 -0.125 -1.671875 -0.125l-3.484375 0l0 4.859375zm9.802952 2.21875q0 -2.734375 1.53125 -4.0625q1.265625 -1.09375 3.09375 -1.09375q2.03125 0 3.3125 1.34375q1.296875 1.328125 1.296875 3.671875q0 1.90625 -0.578125 3.0q-0.5625 1.078125 -1.65625 1.6875q-1.078125 0.59375 -2.375 0.59375q-2.0625 0 -3.34375 -1.328125q-1.28125 -1.328125 -1.28125 -3.8125zm1.71875 0q0 1.890625 0.828125 2.828125q0.828125 0.9375 2.078125 0.9375q1.25 0 2.0625 -0.9375q0.828125 -0.953125 0.828125 -2.890625q0 -1.828125 -0.828125 -2.765625q-0.828125 -0.9375 -2.0625 -0.9375q-1.25 0 -2.078125 0.9375q-0.828125 0.9375 -0.828125 2.828125zm15.672592 4.921875l0 -1.25q-0.9375 1.46875 -2.75 1.46875q-1.171875 0 -2.171875 -0.640625q-0.984375 -0.65625 -1.53125 -1.8125q-0.53125 -1.171875 -0.53125 -2.6875q0 -1.46875 0.484375 -2.671875q0.5 -1.203125 1.46875 -1.84375q0.984375 -0.640625 2.203125 -0.640625q0.890625 0 1.578125 0.375q0.703125 0.375 1.140625 0.984375l0 -4.875l1.65625 0l0 13.59375l-1.546875 0zm-5.28125 -4.921875q0 1.890625 0.796875 2.828125q0.8125 0.9375 1.890625 0.9375q1.09375 0 1.859375 -0.890625q0.765625 -0.890625 0.765625 -2.734375q0 -2.015625 -0.78125 -2.953125q-0.78125 -0.953125 -1.921875 -0.953125q-1.109375 0 -1.859375 0.90625q-0.75 0.90625 -0.75 2.859375zm17.512146 -6.15625l-1.34375 0l-2.140625 -2.59375l2.234375 0l1.25 2.59375z" fill-rule="nonzero"></path><path fill="#000000" d="m100.16727 80.42943l0.046875 0.9375q0.296875 -0.53125 0.796875 -0.828125q0.5 -0.296875 1.203125 -0.296875q1.375 0 1.84375 1.078125q0.296875 -0.484375 0.78125 -0.78125q0.5 -0.296875 1.1875 -0.296875q1.109375 0 1.703125 0.671875q0.59375 0.671875 0.59375 2.046875l0 7.5l-1.640625 0l0 -7.515625q0 -1.265625 -1.15625 -1.25q-0.3125 0 -0.53125 0.09375q-0.21875 0.078125 -0.375 0.21875q-0.140625 0.140625 -0.234375 0.328125q-0.078125 0.1875 -0.109375 0.390625l0 7.734375l-1.625 0l0 -7.53125q0 -0.59375 -0.28125 -0.921875q-0.265625 -0.328125 -0.84375 -0.3125q-0.53125 0 -0.828125 0.21875q-0.296875 0.203125 -0.4375 0.5625l0 7.984375l-1.640625 0l0 -10.03125l1.546875 0zm14.679947 8.828125q0.46875 0 0.90625 -0.140625q0.4375 -0.15625 0.78125 -0.421875q0.34375 -0.265625 0.546875 -0.625q0.21875 -0.359375 0.21875 -0.765625l1.625 0q0 0.65625 -0.34375 1.265625q-0.34375 0.609375 -0.90625 1.078125q-0.5625 0.453125 -1.296875 0.734375q-0.734375 0.265625 -1.53125 0.265625q-1.140625 0 -2.0 -0.40625q-0.84375 -0.40625 -1.421875 -1.09375q-0.5625 -0.703125 -0.859375 -1.609375q-0.28125 -0.90625 -0.28125 -1.90625l0 -0.390625q0 -0.984375 0.28125 -1.890625q0.296875 -0.921875 0.859375 -1.609375q0.578125 -0.6875 1.421875 -1.09375q0.859375 -0.40625 2.0 -0.40625q0.890625 0 1.640625 0.28125q0.75 0.28125 1.28125 0.765625q0.546875 0.484375 0.84375 1.15625q0.3125 0.671875 0.3125 1.421875l-1.625 0q0 -0.453125 -0.203125 -0.84375q-0.1875 -0.40625 -0.515625 -0.71875q-0.3125 -0.3125 -0.765625 -0.484375q-0.453125 -0.171875 -0.96875 -0.171875q-0.796875 0 -1.34375 0.328125q-0.53125 0.3125 -0.875 0.828125q-0.328125 0.515625 -0.484375 1.15625q-0.140625 0.640625 -0.140625 1.28125l0 0.390625q0 0.65625 0.140625 1.3125q0.15625 0.640625 0.484375 1.15625q0.328125 0.515625 0.859375 0.84375q0.546875 0.3125 1.359375 0.3125zm12.492447 1.203125l-1.71875 0l0 -11.3125l-3.53125 1.34375l0 -1.578125l5.109375 -1.96875l0.140625 0l0 13.515625z" fill-rule="nonzero"></path><path fill="#000000" d="m135.66023 79.38255l-1.34375 0l-2.140625 -2.59375l2.234375 0l1.25 2.59375z" fill-rule="nonzero"></path><path fill="#cfe2f3" d="m54.362206 118.85849l0 0c0 -6.1172943 4.9590454 -11.07634 11.07634 -11.07634l278.66623 0c2.937622 0 5.754944 1.1669693 7.8321533 3.2441864c2.0772095 2.077217 3.2441711 4.8945236 3.2441711 7.8321533l0 44.304016c0 6.1172943 -4.9590454 11.07634 -11.076324 11.07634l-278.66623 0c-6.1172943 0 -11.07634 -4.9590454 -11.07634 -11.07634z" fill-rule="evenodd"></path><path stroke="#000000" stroke-width="1.0" stroke-linejoin="round" stroke-linecap="butt" d="m54.362206 118.85849l0 0c0 -6.1172943 4.9590454 -11.07634 11.07634 -11.07634l278.66623 0c2.937622 0 5.754944 1.1669693 7.8321533 3.2441864c2.0772095 2.077217 3.2441711 4.8945236 3.2441711 7.8321533l0 44.304016c0 6.1172943 -4.9590454 11.07634 -11.076324 11.07634l-278.66623 0c-6.1172943 0 -11.07634 -4.9590454 -11.07634 -11.07634z" fill-rule="evenodd"></path><path fill="#000000" d="m77.77823 132.16487l1.796875 0.453125q-0.5625 2.21875 -2.03125 3.390625q-1.46875 1.15625 -3.59375 1.15625q-2.203125 0 -3.578125 -0.890625q-1.375 -0.90625 -2.09375 -2.59375q-0.71875 -1.703125 -0.71875 -3.65625q0 -2.125 0.796875 -3.703125q0.8125 -1.578125 2.3125 -2.390625q1.5 -0.828125 3.296875 -0.828125q2.046875 0 3.4375 1.046875q1.390625 1.03125 1.9375 2.90625l-1.765625 0.421875q-0.46875 -1.484375 -1.375 -2.15625q-0.90625 -0.6875 -2.265625 -0.6875q-1.5625 0 -2.625 0.75q-1.046875 0.75 -1.484375 2.03125q-0.421875 1.265625 -0.421875 2.609375q0 1.734375 0.5 3.03125q0.515625 1.28125 1.578125 1.921875q1.078125 0.640625 2.3125 0.640625q1.515625 0 2.5625 -0.859375q1.046875 -0.875 1.421875 -2.59375zm2.9260712 -0.15625q0 -2.734375 1.53125 -4.0625q1.265625 -1.09375 3.09375 -1.09375q2.03125 0 3.3125 1.34375q1.296875 1.328125 1.296875 3.671875q0 1.90625 -0.578125 3.0q-0.5625 1.078125 -1.65625 1.6875q-1.078125 0.59375 -2.375 0.59375q-2.0625 0 -3.34375 -1.328125q-1.28125 -1.328125 -1.28125 -3.8125zm1.71875 0q0 1.890625 0.828125 2.828125q0.828125 0.9375 2.078125 0.9375q1.25 0 2.0625 -0.9375q0.828125 -0.953125 0.828125 -2.890625q0 -1.828125 -0.828125 -2.765625q-0.828125 -0.9375 -2.0625 -0.9375q-1.25 0 -2.078125 0.9375q-0.828125 0.9375 -0.828125 2.828125zm9.281967 4.921875l0 -9.859375l1.5 0l0 1.40625q1.09375 -1.625 3.140625 -1.625q0.890625 0 1.640625 0.328125q0.75 0.3125 1.109375 0.84375q0.375 0.515625 0.53125 1.21875q0.09375 0.46875 0.09375 1.625l0 6.0625l-1.671875 0l0 -6.0q0 -1.015625 -0.203125 -1.515625q-0.1875 -0.515625 -0.6875 -0.8125q-0.5 -0.296875 -1.171875 -0.296875q-1.0625 0 -1.84375 0.671875q-0.765625 0.671875 -0.765625 2.578125l0 5.375l-1.671875 0zm14.031967 -1.5l0.234375 1.484375q-0.703125 0.140625 -1.265625 0.140625q-0.90625 0 -1.40625 -0.28125q-0.5 -0.296875 -0.703125 -0.75q-0.203125 -0.46875 -0.203125 -1.984375l0 -5.65625l-1.234375 0l0 -1.3125l1.234375 0l0 -2.4375l1.65625 -1.0l0 3.4375l1.6875 0l0 1.3125l-1.6875 0l0 5.75q0 0.71875 0.078125 0.921875q0.09375 0.203125 0.296875 0.328125q0.203125 0.125 0.578125 0.125q0.265625 0 0.734375 -0.078125zm7.964554 0.28125q-0.9375 0.796875 -1.796875 1.125q-0.859375 0.3125 -1.84375 0.3125q-1.609375 0 -2.484375 -0.78125q-0.875 -0.796875 -0.875 -2.03125q0 -0.734375 0.328125 -1.328125q0.328125 -0.59375 0.859375 -0.953125q0.53125 -0.359375 1.203125 -0.546875q0.5 -0.140625 1.484375 -0.25q2.03125 -0.25 2.984375 -0.578125q0 -0.34375 0 -0.4375q0 -1.015625 -0.46875 -1.4375q-0.640625 -0.5625 -1.90625 -0.5625q-1.171875 0 -1.734375 0.40625q-0.5625 0.40625 -0.828125 1.46875l-1.640625 -0.234375q0.234375 -1.046875 0.734375 -1.6875q0.515625 -0.640625 1.46875 -0.984375q0.96875 -0.359375 2.25 -0.359375q1.265625 0 2.046875 0.296875q0.78125 0.296875 1.15625 0.75q0.375 0.453125 0.515625 1.140625q0.09375 0.421875 0.09375 1.53125l0 2.234375q0 2.328125 0.09375 2.953125q0.109375 0.609375 0.4375 1.171875l-1.75 0q-0.265625 -0.515625 -0.328125 -1.21875zm-0.140625 -3.71875q-0.90625 0.359375 -2.734375 0.625q-1.03125 0.140625 -1.453125 0.328125q-0.421875 0.1875 -0.65625 0.546875q-0.234375 0.359375 -0.234375 0.796875q0 0.671875 0.5 1.125q0.515625 0.4375 1.484375 0.4375q0.96875 0 1.71875 -0.421875q0.75 -0.4375 1.109375 -1.15625q0.265625 -0.578125 0.265625 -1.671875l0 -0.609375zm4.094467 -6.75l0 -1.90625l1.671875 0l0 1.90625l-1.671875 0zm0 11.6875l0 -9.859375l1.671875 0l0 9.859375l-1.671875 0zm4.129196 0l0 -9.859375l1.5 0l0 1.40625q1.09375 -1.625 3.140625 -1.625q0.890625 0 1.640625 0.328125q0.75 0.3125 1.109375 0.84375q0.375 0.515625 0.53125 1.21875q0.09375 0.46875 0.09375 1.625l0 6.0625l-1.671875 0l0 -6.0q0 -1.015625 -0.203125 -1.515625q-0.1875 -0.515625 -0.6875 -0.8125q-0.5 -0.296875 -1.171875 -0.296875q-1.0625 0 -1.84375 0.671875q-0.765625 0.671875 -0.765625 2.578125l0 5.375l-1.671875 0zm17.125717 -3.171875l1.71875 0.21875q-0.40625 1.5 -1.515625 2.34375q-1.09375 0.828125 -2.8125 0.828125q-2.15625 0 -3.421875 -1.328125q-1.265625 -1.328125 -1.265625 -3.734375q0 -2.484375 1.265625 -3.859375q1.28125 -1.375 3.328125 -1.375q1.984375 0 3.234375 1.34375q1.25 1.34375 1.25 3.796875q0 0.140625 -0.015625 0.4375l-7.34375 0q0.09375 1.625 0.921875 2.484375q0.828125 0.859375 2.0625 0.859375q0.90625 0 1.546875 -0.46875q0.65625 -0.484375 1.046875 -1.546875zm-5.484375 -2.703125l5.5 0q-0.109375 -1.234375 -0.625 -1.859375q-0.796875 -0.96875 -2.078125 -0.96875q-1.140625 0 -1.9375 0.78125q-0.78125 0.765625 -0.859375 2.046875zm9.094467 5.875l0 -9.859375l1.5 0l0 1.5q0.578125 -1.046875 1.0625 -1.375q0.484375 -0.34375 1.078125 -0.34375q0.84375 0 1.71875 0.546875l-0.578125 1.546875q-0.609375 -0.359375 -1.234375 -0.359375q-0.546875 0 -0.984375 0.328125q-0.421875 0.328125 -0.609375 0.90625q-0.28125 0.890625 -0.28125 1.953125l0 5.15625l-1.671875 0zm14.474106 -11.078125l-1.34375 0l-2.140625 -2.59375l2.234375 0l1.25 2.59375z" fill-rule="nonzero"></path><path fill="#000000" d="m166.08217 136.9305l-1.71875 0l0 -11.3125l-3.53125 1.34375l0 -1.578125l5.109375 -1.96875l0.140625 0l0 13.515625zm12.289322 -2.65625q0 -0.3125 -0.125 -0.546875q-0.109375 -0.25 -0.40625 -0.453125q-0.28125 -0.21875 -0.765625 -0.390625q-0.46875 -0.171875 -1.171875 -0.296875q-0.859375 -0.1875 -1.578125 -0.4375q-0.703125 -0.25 -1.203125 -0.59375q-0.5 -0.34375 -0.78125 -0.8125q-0.28125 -0.46875 -0.28125 -1.09375q0 -0.609375 0.28125 -1.140625q0.296875 -0.546875 0.8125 -0.9375q0.515625 -0.40625 1.234375 -0.625q0.71875 -0.234375 1.578125 -0.234375q0.9375 0 1.671875 0.25q0.75 0.234375 1.265625 0.65625q0.515625 0.421875 0.796875 1.0q0.296875 0.5625 0.296875 1.21875l-1.71875 0q0 -0.3125 -0.171875 -0.625q-0.171875 -0.3125 -0.46875 -0.546875q-0.296875 -0.25 -0.71875 -0.390625q-0.421875 -0.15625 -0.953125 -0.15625q-0.546875 0 -0.953125 0.125q-0.40625 0.109375 -0.6875 0.3125q-0.265625 0.203125 -0.40625 0.484375q-0.140625 0.265625 -0.140625 0.546875q0 0.296875 0.109375 0.53125q0.109375 0.234375 0.375 0.421875q0.28125 0.1875 0.734375 0.34375q0.46875 0.140625 1.171875 0.28125q0.921875 0.1875 1.65625 0.453125q0.734375 0.25 1.234375 0.609375q0.5 0.359375 0.765625 0.828125q0.265625 0.46875 0.265625 1.09375q0 0.671875 -0.3125 1.21875q-0.296875 0.546875 -0.828125 0.9375q-0.53125 0.390625 -1.296875 0.609375q-0.75 0.203125 -1.640625 0.203125q-1.015625 0 -1.8125 -0.265625q-0.796875 -0.28125 -1.359375 -0.734375q-0.546875 -0.453125 -0.84375 -1.046875q-0.28125 -0.59375 -0.28125 -1.234375l1.71875 0q0.03125 0.53125 0.28125 0.890625q0.25 0.359375 0.609375 0.59375q0.375 0.21875 0.8125 0.3125q0.453125 0.09375 0.875 0.09375q1.09375 0 1.71875 -0.390625q0.640625 -0.40625 0.640625 -1.0625zm8.586197 -9.8125l0 2.4375l3.828125 0l0 1.3125l-3.828125 0l0 5.46875q0 0.578125 0.140625 0.96875q0.15625 0.375 0.421875 0.609375q0.265625 0.21875 0.59375 0.3125q0.34375 0.09375 0.71875 0.09375q0.28125 0 0.578125 -0.03125q0.296875 -0.046875 0.578125 -0.078125q0.28125 -0.046875 0.53125 -0.09375q0.25 -0.0625 0.40625 -0.09375l0.234375 1.203125q-0.203125 0.140625 -0.515625 0.234375q-0.296875 0.09375 -0.671875 0.15625q-0.359375 0.078125 -0.765625 0.109375q-0.390625 0.046875 -0.796875 0.046875q-0.671875 0 -1.25 -0.1875q-0.578125 -0.1875 -1.015625 -0.59375q-0.421875 -0.421875 -0.671875 -1.078125q-0.234375 -0.65625 -0.234375 -1.578125l0 -5.46875l-2.640625 0l0 -1.3125l2.640625 0l0 -2.4375l1.71875 0z" fill-rule="nonzero"></path><path fill="#000000" d="m196.79388 125.85237l-1.34375 0l-2.140625 -2.59375l2.234375 0l1.25 2.59375z" fill-rule="nonzero"></path><path fill="#cfe2f3" d="m54.362206 201.94247l0 0c0 -6.1172943 4.9590454 -11.07634 11.07634 -11.07634l278.66623 0c2.937622 0 5.754944 1.1669769 7.8321533 3.2441864c2.0772095 2.0772247 3.2441711 4.8945312 3.2441711 7.8321533l0 44.304016c0 6.1172943 -4.9590454 11.076355 -11.076324 11.076355l-278.66623 0c-6.1172943 0 -11.07634 -4.9590607 -11.07634 -11.076355z" fill-rule="evenodd"></path><path stroke="#000000" stroke-width="1.0" stroke-linejoin="round" stroke-linecap="butt" d="m54.362206 201.94247l0 0c0 -6.1172943 4.9590454 -11.07634 11.07634 -11.07634l278.66623 0c2.937622 0 5.754944 1.1669769 7.8321533 3.2441864c2.0772095 2.0772247 3.2441711 4.8945312 3.2441711 7.8321533l0 44.304016c0 6.1172943 -4.9590454 11.076355 -11.076324 11.076355l-278.66623 0c-6.1172943 0 -11.07634 -4.9590607 -11.07634 -11.076355z" fill-rule="evenodd"></path><path fill="#000000" d="m77.77823 215.24886l1.796875 0.453125q-0.5625 2.21875 -2.03125 3.390625q-1.46875 1.15625 -3.59375 1.15625q-2.203125 0 -3.578125 -0.890625q-1.375 -0.90625 -2.09375 -2.59375q-0.71875 -1.703125 -0.71875 -3.65625q0 -2.125 0.796875 -3.703125q0.8125 -1.578125 2.3125 -2.390625q1.5 -0.828125 3.296875 -0.828125q2.046875 0 3.4375 1.046875q1.390625 1.03125 1.9375 2.90625l-1.765625 0.421875q-0.46875 -1.484375 -1.375 -2.15625q-0.90625 -0.6875 -2.265625 -0.6875q-1.5625 0 -2.625 0.75q-1.046875 0.75 -1.484375 2.03125q-0.421875 1.265625 -0.421875 2.609375q0 1.734375 0.5 3.03125q0.515625 1.28125 1.578125 1.921875q1.078125 0.640625 2.3125 0.640625q1.515625 0 2.5625 -0.859375q1.046875 -0.875 1.421875 -2.59375zm2.9260712 -0.15625q0 -2.734375 1.53125 -4.0625q1.265625 -1.09375 3.09375 -1.09375q2.03125 0 3.3125 1.34375q1.296875 1.328125 1.296875 3.671875q0 1.90625 -0.578125 3.0q-0.5625 1.078125 -1.65625 1.6875q-1.078125 0.59375 -2.375 0.59375q-2.0625 0 -3.34375 -1.328125q-1.28125 -1.328125 -1.28125 -3.8125zm1.71875 0q0 1.890625 0.828125 2.828125q0.828125 0.9375 2.078125 0.9375q1.25 0 2.0625 -0.9375q0.828125 -0.953125 0.828125 -2.890625q0 -1.828125 -0.828125 -2.765625q-0.828125 -0.9375 -2.0625 -0.9375q-1.25 0 -2.078125 0.9375q-0.828125 0.9375 -0.828125 2.828125zm9.281967 4.921875l0 -9.859375l1.5 0l0 1.40625q1.09375 -1.625 3.140625 -1.625q0.890625 0 1.640625 0.328125q0.75 0.3125 1.109375 0.84375q0.375 0.515625 0.53125 1.21875q0.09375 0.46875 0.09375 1.625l0 6.0625l-1.671875 0l0 -6.0q0 -1.015625 -0.203125 -1.515625q-0.1875 -0.515625 -0.6875 -0.8125q-0.5 -0.296875 -1.171875 -0.296875q-1.0625 0 -1.84375 0.671875q-0.765625 0.671875 -0.765625 2.578125l0 5.375l-1.671875 0zm14.031967 -1.5l0.234375 1.484375q-0.703125 0.140625 -1.265625 0.140625q-0.90625 0 -1.40625 -0.28125q-0.5 -0.296875 -0.703125 -0.75q-0.203125 -0.46875 -0.203125 -1.984375l0 -5.65625l-1.234375 0l0 -1.3125l1.234375 0l0 -2.4375l1.65625 -1.0l0 3.4375l1.6875 0l0 1.3125l-1.6875 0l0 5.75q0 0.71875 0.078125 0.921875q0.09375 0.203125 0.296875 0.328125q0.203125 0.125 0.578125 0.125q0.265625 0 0.734375 -0.078125zm7.964554 0.28125q-0.9375 0.796875 -1.796875 1.125q-0.859375 0.3125 -1.84375 0.3125q-1.609375 0 -2.484375 -0.78125q-0.875 -0.796875 -0.875 -2.03125q0 -0.734375 0.328125 -1.328125q0.328125 -0.59375 0.859375 -0.953125q0.53125 -0.359375 1.203125 -0.546875q0.5 -0.140625 1.484375 -0.25q2.03125 -0.25 2.984375 -0.578125q0 -0.34375 0 -0.4375q0 -1.015625 -0.46875 -1.4375q-0.640625 -0.5625 -1.90625 -0.5625q-1.171875 0 -1.734375 0.40625q-0.5625 0.40625 -0.828125 1.46875l-1.640625 -0.234375q0.234375 -1.046875 0.734375 -1.6875q0.515625 -0.640625 1.46875 -0.984375q0.96875 -0.359375 2.25 -0.359375q1.265625 0 2.046875 0.296875q0.78125 0.296875 1.15625 0.75q0.375 0.453125 0.515625 1.140625q0.09375 0.421875 0.09375 1.53125l0 2.234375q0 2.328125 0.09375 2.953125q0.109375 0.609375 0.4375 1.171875l-1.75 0q-0.265625 -0.515625 -0.328125 -1.21875zm-0.140625 -3.71875q-0.90625 0.359375 -2.734375 0.625q-1.03125 0.140625 -1.453125 0.328125q-0.421875 0.1875 -0.65625 0.546875q-0.234375 0.359375 -0.234375 0.796875q0 0.671875 0.5 1.125q0.515625 0.4375 1.484375 0.4375q0.96875 0 1.71875 -0.421875q0.75 -0.4375 1.109375 -1.15625q0.265625 -0.578125 0.265625 -1.671875l0 -0.609375zm4.094467 -6.75l0 -1.90625l1.671875 0l0 1.90625l-1.671875 0zm0 11.6875l0 -9.859375l1.671875 0l0 9.859375l-1.671875 0zm4.129196 0l0 -9.859375l1.5 0l0 1.40625q1.09375 -1.625 3.140625 -1.625q0.890625 0 1.640625 0.328125q0.75 0.3125 1.109375 0.84375q0.375 0.515625 0.53125 1.21875q0.09375 0.46875 0.09375 1.625l0 6.0625l-1.671875 0l0 -6.0q0 -1.015625 -0.203125 -1.515625q-0.1875 -0.515625 -0.6875 -0.8125q-0.5 -0.296875 -1.171875 -0.296875q-1.0625 0 -1.84375 0.671875q-0.765625 0.671875 -0.765625 2.578125l0 5.375l-1.671875 0zm17.125717 -3.171875l1.71875 0.21875q-0.40625 1.5 -1.515625 2.34375q-1.09375 0.828125 -2.8125 0.828125q-2.15625 0 -3.421875 -1.328125q-1.265625 -1.328125 -1.265625 -3.734375q0 -2.484375 1.265625 -3.859375q1.28125 -1.375 3.328125 -1.375q1.984375 0 3.234375 1.34375q1.25 1.34375 1.25 3.796875q0 0.140625 -0.015625 0.4375l-7.34375 0q0.09375 1.625 0.921875 2.484375q0.828125 0.859375 2.0625 0.859375q0.90625 0 1.546875 -0.46875q0.65625 -0.484375 1.046875 -1.546875zm-5.484375 -2.703125l5.5 0q-0.109375 -1.234375 -0.625 -1.859375q-0.796875 -0.96875 -2.078125 -0.96875q-1.140625 0 -1.9375 0.78125q-0.78125 0.765625 -0.859375 2.046875zm9.094467 5.875l0 -9.859375l1.5 0l0 1.5q0.578125 -1.046875 1.0625 -1.375q0.484375 -0.34375 1.078125 -0.34375q0.84375 0 1.71875 0.546875l-0.578125 1.546875q-0.609375 -0.359375 -1.234375 -0.359375q-0.546875 0 -0.984375 0.328125q-0.421875 0.328125 -0.609375 0.90625q-0.28125 0.890625 -0.28125 1.953125l0 5.15625l-1.671875 0zm14.474106 -11.078125l-1.34375 0l-2.140625 -2.59375l2.234375 0l1.25 2.59375z" fill-rule="nonzero"></path><path fill="#000000" d="m168.80092 220.01448l-8.859375 0l0 -1.234375l4.421875 -4.921875q0.59375 -0.65625 0.984375 -1.15625q0.40625 -0.515625 0.640625 -0.9375q0.25 -0.4375 0.34375 -0.828125q0.109375 -0.390625 0.109375 -0.796875q0 -0.5 -0.15625 -0.9375q-0.15625 -0.4375 -0.46875 -0.765625q-0.3125 -0.328125 -0.765625 -0.515625q-0.4375 -0.1875 -0.984375 -0.1875q-0.6875 0 -1.1875 0.203125q-0.484375 0.1875 -0.8125 0.546875q-0.328125 0.359375 -0.5 0.875q-0.15625 0.5 -0.15625 1.125l-1.734375 0q0 -0.84375 0.296875 -1.59375q0.296875 -0.765625 0.859375 -1.328125q0.5625 -0.578125 1.375 -0.90625q0.8125 -0.328125 1.859375 -0.328125q0.953125 0 1.71875 0.28125q0.765625 0.28125 1.296875 0.78125q0.53125 0.5 0.8125 1.1875q0.28125 0.6875 0.28125 1.484375q0 0.609375 -0.203125 1.203125q-0.203125 0.578125 -0.5625 1.15625q-0.34375 0.578125 -0.8125 1.140625q-0.453125 0.5625 -0.953125 1.125l-3.625 3.921875l6.78125 0l0 1.40625zm4.445572 -10.03125l0.125 1.484375q0.546875 -0.78125 1.34375 -1.21875q0.796875 -0.453125 1.78125 -0.453125q0.78125 0 1.421875 0.21875q0.65625 0.21875 1.109375 0.703125q0.453125 0.46875 0.6875 1.203125q0.25 0.71875 0.25 1.71875l0 6.375l-1.703125 0l0 -6.34375q0 -0.65625 -0.15625 -1.125q-0.140625 -0.46875 -0.4375 -0.75q-0.296875 -0.28125 -0.71875 -0.40625q-0.421875 -0.140625 -0.96875 -0.140625q-0.859375 0 -1.515625 0.4375q-0.65625 0.421875 -1.046875 1.125l0 7.203125l-1.71875 0l0 -10.03125l1.546875 0zm9.336197 4.921875q0 -1.109375 0.28125 -2.046875q0.28125 -0.953125 0.796875 -1.625q0.53125 -0.6875 1.265625 -1.0625q0.75 -0.375 1.671875 -0.375q0.890625 0 1.5625 0.296875q0.671875 0.296875 1.171875 0.875l0 -5.203125l1.71875 0l0 14.25l-1.578125 0l-0.078125 -1.0625q-0.5 0.609375 -1.203125 0.9375q-0.6875 0.3125 -1.625 0.3125q-0.90625 0 -1.640625 -0.390625q-0.734375 -0.390625 -1.265625 -1.078125q-0.515625 -0.6875 -0.796875 -1.609375q-0.28125 -0.9375 -0.28125 -2.015625l0 -0.203125zm1.703125 0.203125q0 0.734375 0.15625 1.390625q0.171875 0.65625 0.5 1.15625q0.328125 0.5 0.828125 0.796875q0.515625 0.296875 1.234375 0.296875q0.4375 0 0.78125 -0.09375q0.359375 -0.109375 0.640625 -0.296875q0.296875 -0.203125 0.515625 -0.46875q0.21875 -0.265625 0.390625 -0.578125l0 -4.65625q-0.34375 -0.625 -0.90625 -1.015625q-0.5625 -0.390625 -1.40625 -0.390625q-0.71875 0 -1.234375 0.296875q-0.515625 0.296875 -0.84375 0.8125q-0.328125 0.5 -0.5 1.171875q-0.15625 0.65625 -0.15625 1.375l0 0.203125z" fill-rule="nonzero"></path><path fill="#000000" d="m196.79388 208.93636l-1.34375 0l-2.140625 -2.59375l2.234375 0l1.25 2.59375z" fill-rule="nonzero"></path><path fill="#d9ead3" d="m65.2336 145.77174l0 0c0 -2.4469147 1.9836197 -4.430542 4.4305344 -4.430542l260.52475 0c1.1750793 0 2.302002 0.46679688 3.1328735 1.2976837c0.8309021 0.83088684 1.2976685 1.9578094 1.2976685 3.1328583l0 17.721603c0 2.4469147 -1.9836121 4.430542 -4.430542 4.430542l-260.52475 0l0 0c-2.4469147 0 -4.4305344 -1.9836273 -4.4305344 -4.430542z" fill-rule="evenodd"></path><path stroke="#000000" stroke-width="1.0" stroke-linejoin="round" stroke-linecap="butt" d="m65.2336 145.77174l0 0c0 -2.4469147 1.9836197 -4.430542 4.4305344 -4.430542l260.52475 0c1.1750793 0 2.302002 0.46679688 3.1328735 1.2976837c0.8309021 0.83088684 1.2976685 1.9578094 1.2976685 3.1328583l0 17.721603c0 2.4469147 -1.9836121 4.430542 -4.430542 4.430542l-260.52475 0l0 0c-2.4469147 0 -4.4305344 -1.9836273 -4.4305344 -4.430542z" fill-rule="evenodd"></path><path fill="#000000" d="m79.40626 162.7088l-1.53125 0l5.640625 -14.671875l1.53125 0l-5.640625 14.671875zm15.445572 -2.53125q-0.5 0.734375 -1.25 1.15625q-0.75 0.40625 -1.734375 0.40625q-0.796875 0 -1.4375 -0.25q-0.625 -0.25 -1.09375 -0.765625q-0.453125 -0.515625 -0.703125 -1.3125q-0.234375 -0.8125 -0.234375 -1.9375l0 -5.953125l1.71875 0l0 5.984375q0 0.8125 0.125 1.359375q0.125 0.53125 0.390625 0.859375q0.265625 0.3125 0.640625 0.4375q0.375 0.125 0.859375 0.125q1.046875 0 1.6875 -0.421875q0.65625 -0.421875 0.96875 -1.15625l0 -7.1875l1.71875 0l0 10.03125l-1.546875 0l-0.109375 -1.375zm11.351822 -1.28125q0 -0.3125 -0.125 -0.546875q-0.109375 -0.25 -0.40625 -0.453125q-0.28125 -0.21875 -0.765625 -0.390625q-0.46875 -0.171875 -1.171875 -0.296875q-0.859375 -0.1875 -1.578125 -0.4375q-0.703125 -0.25 -1.203125 -0.59375q-0.5 -0.34375 -0.78125 -0.8125q-0.28125 -0.46875 -0.28125 -1.09375q0 -0.609375 0.28125 -1.140625q0.296875 -0.546875 0.8125 -0.9375q0.515625 -0.40625 1.234375 -0.625q0.71875 -0.234375 1.578125 -0.234375q0.9375 0 1.671875 0.25q0.75 0.234375 1.265625 0.65625q0.515625 0.421875 0.796875 1.0q0.296875 0.5625 0.296875 1.21875l-1.71875 0q0 -0.3125 -0.171875 -0.625q-0.171875 -0.3125 -0.46875 -0.546875q-0.296875 -0.25 -0.71875 -0.390625q-0.421875 -0.15625 -0.953125 -0.15625q-0.546875 0 -0.953125 0.125q-0.40625 0.109375 -0.6875 0.3125q-0.265625 0.203125 -0.40625 0.484375q-0.140625 0.265625 -0.140625 0.546875q0 0.296875 0.109375 0.53125q0.109375 0.234375 0.375 0.421875q0.28125 0.1875 0.734375 0.34375q0.46875 0.140625 1.171875 0.28125q0.921875 0.1875 1.65625 0.453125q0.734375 0.25 1.234375 0.609375q0.5 0.359375 0.765625 0.828125q0.265625 0.46875 0.265625 1.09375q0 0.671875 -0.3125 1.21875q-0.296875 0.546875 -0.828125 0.9375q-0.53125 0.390625 -1.296875 0.609375q-0.75 0.203125 -1.640625 0.203125q-1.015625 0 -1.8125 -0.265625q-0.796875 -0.28125 -1.359375 -0.734375q-0.546875 -0.453125 -0.84375 -1.046875q-0.28125 -0.59375 -0.28125 -1.234375l1.71875 0q0.03125 0.53125 0.28125 0.890625q0.25 0.359375 0.609375 0.59375q0.375 0.21875 0.8125 0.3125q0.453125 0.09375 0.875 0.09375q1.09375 0 1.71875 -0.390625q0.640625 -0.40625 0.640625 -1.0625zm11.101822 -7.5625q0.25 0 0.5 0.015625q0.265625 0 0.5 0.046875q0.234375 0.03125 0.4375 0.078125q0.203125 0.046875 0.328125 0.09375l-0.234375 1.6875q-0.5 -0.125 -0.953125 -0.171875q-0.4375 -0.046875 -0.9375 -0.046875q-1.203125 0 -1.953125 0.546875q-0.75 0.546875 -1.09375 1.53125l0 6.4375l-1.734375 0l0 -10.03125l1.640625 0l0.078125 1.59375q0.609375 -0.828125 1.46875 -1.296875q0.859375 -0.484375 1.953125 -0.484375zm6.883072 11.375l-1.53125 0l5.6406174 -14.671875l1.53125 0l-5.6406174 14.671875zm15.601814 -3.8125q0 -0.3125 -0.125 -0.546875q-0.109375 -0.25 -0.40625 -0.453125q-0.28125 -0.21875 -0.765625 -0.390625q-0.46875 -0.171875 -1.171875 -0.296875q-0.859375 -0.1875 -1.578125 -0.4375q-0.703125 -0.25 -1.203125 -0.59375q-0.5 -0.34375 -0.78125 -0.8125q-0.28125 -0.46875 -0.28125 -1.09375q0 -0.609375 0.28125 -1.140625q0.296875 -0.546875 0.8125 -0.9375q0.515625 -0.40625 1.234375 -0.625q0.71875 -0.234375 1.578125 -0.234375q0.9375 0 1.671875 0.25q0.75 0.234375 1.265625 0.65625q0.515625 0.421875 0.796875 1.0q0.296875 0.5625 0.296875 1.21875l-1.71875 0q0 -0.3125 -0.171875 -0.625q-0.171875 -0.3125 -0.46875 -0.546875q-0.296875 -0.25 -0.71875 -0.390625q-0.421875 -0.15625 -0.953125 -0.15625q-0.546875 0 -0.953125 0.125q-0.40625 0.109375 -0.6875 0.3125q-0.265625 0.203125 -0.40625 0.484375q-0.140625 0.265625 -0.140625 0.546875q0 0.296875 0.109375 0.53125q0.109375 0.234375 0.375 0.421875q0.28125 0.1875 0.734375 0.34375q0.46875 0.140625 1.171875 0.28125q0.921875 0.1875 1.65625 0.453125q0.734375 0.25 1.234375 0.609375q0.5 0.359375 0.765625 0.828125q0.265625 0.46875 0.265625 1.09375q0 0.671875 -0.3125 1.21875q-0.296875 0.546875 -0.828125 0.9375q-0.53125 0.390625 -1.296875 0.609375q-0.75 0.203125 -1.640625 0.203125q-1.015625 0 -1.8125 -0.265625q-0.796875 -0.28125 -1.359375 -0.734375q-0.546875 -0.453125 -0.84375 -1.046875q-0.28125 -0.59375 -0.28125 -1.234375l1.71875 0q0.03125 0.53125 0.28125 0.890625q0.25 0.359375 0.609375 0.59375q0.375 0.21875 0.8125 0.3125q0.453125 0.09375 0.875 0.09375q1.09375 0 1.71875 -0.390625q0.640625 -0.40625 0.640625 -1.0625zm6.242447 -5.890625q0.546875 -0.78125 1.328125 -1.21875q0.796875 -0.453125 1.765625 -0.453125q0.796875 0 1.4375 0.234375q0.640625 0.21875 1.09375 0.703125q0.46875 0.484375 0.703125 1.21875q0.25 0.734375 0.25 1.75l0 6.3125l-1.71875 0l0 -6.34375q0 -1.234375 -0.59375 -1.828125q-0.578125 -0.609375 -1.671875 -0.59375q-0.828125 0 -1.5 0.40625q-0.671875 0.40625 -1.09375 1.0625l0 7.296875l-1.71875 0l0 -14.25l1.71875 0l0 5.703125zm16.070572 8.546875q-0.09375 -0.1875 -0.15625 -0.484375q-0.0625 -0.296875 -0.09375 -0.609375q-0.25 0.265625 -0.578125 0.5q-0.3125 0.21875 -0.703125 0.40625q-0.375 0.171875 -0.8125 0.265625q-0.4375 0.109375 -0.9375 0.109375q-0.796875 0 -1.4375 -0.234375q-0.640625 -0.234375 -1.09375 -0.625q-0.453125 -0.390625 -0.703125 -0.9375q-0.234375 -0.546875 -0.234375 -1.171875q0 -0.828125 0.328125 -1.453125q0.328125 -0.625 0.921875 -1.03125q0.609375 -0.40625 1.453125 -0.609375q0.859375 -0.21875 1.90625 -0.21875l1.875 0l0 -0.78125q0 -0.453125 -0.171875 -0.8125q-0.171875 -0.359375 -0.484375 -0.609375q-0.296875 -0.265625 -0.734375 -0.40625q-0.4375 -0.140625 -0.984375 -0.140625q-0.515625 0 -0.921875 0.140625q-0.40625 0.125 -0.6875 0.34375q-0.265625 0.203125 -0.421875 0.5q-0.15625 0.28125 -0.15625 0.609375l-1.71875 0q0 -0.546875 0.265625 -1.078125q0.28125 -0.53125 0.796875 -0.953125q0.515625 -0.421875 1.25 -0.671875q0.75 -0.265625 1.6875 -0.265625q0.84375 0 1.578125 0.203125q0.734375 0.203125 1.265625 0.625q0.53125 0.421875 0.84375 1.0625q0.3125 0.625 0.3125 1.46875l0 4.671875q0 0.5 0.078125 1.0625q0.09375 0.5625 0.265625 0.96875l0 0.15625l-1.796875 0zm-3.03125 -1.3125q0.5 0 0.9375 -0.125q0.4375 -0.125 0.796875 -0.34375q0.359375 -0.21875 0.609375 -0.484375q0.265625 -0.28125 0.421875 -0.578125l0 -2.03125l-1.59375 0q-1.515625 0 -2.359375 0.453125q-0.828125 0.4375 -0.828125 1.390625q0 0.375 0.125 0.703125q0.140625 0.3125 0.390625 0.546875q0.25 0.21875 0.625 0.34375q0.375 0.125 0.875 0.125zm14.211197 -8.90625q0.25 0 0.5 0.015625q0.265625 0 0.5 0.046875q0.234375 0.03125 0.4375 0.078125q0.203125 0.046875 0.328125 0.09375l-0.234375 1.6875q-0.5 -0.125 -0.953125 -0.171875q-0.4375 -0.046875 -0.9375 -0.046875q-1.203125 0 -1.953125 0.546875q-0.75 0.546875 -1.09375 1.53125l0 6.4375l-1.734375 0l0 -10.03125l1.640625 0l0.078125 1.59375q0.609375 -0.828125 1.46875 -1.296875q0.859375 -0.484375 1.953125 -0.484375zm9.054947 10.40625q-1.0625 0 -1.953125 -0.359375q-0.875 -0.359375 -1.515625 -1.015625q-0.625 -0.65625 -0.984375 -1.546875q-0.34375 -0.890625 -0.34375 -1.9375l0 -0.390625q0 -1.203125 0.390625 -2.15625q0.390625 -0.96875 1.03125 -1.625q0.65625 -0.671875 1.46875 -1.015625q0.828125 -0.359375 1.6875 -0.359375q1.078125 0 1.890625 0.375q0.8125 0.375 1.34375 1.046875q0.546875 0.65625 0.8125 1.5625q0.265625 0.890625 0.265625 1.9375l0 0.765625l-7.171875 0q0.03125 0.6875 0.265625 1.296875q0.234375 0.59375 0.640625 1.046875q0.421875 0.453125 1.0 0.71875q0.578125 0.25 1.265625 0.25q0.921875 0 1.625 -0.359375q0.71875 -0.375 1.203125 -0.984375l1.046875 0.8125q-0.25 0.375 -0.625 0.734375q-0.375 0.34375 -0.875 0.609375q-0.484375 0.265625 -1.109375 0.421875q-0.625 0.171875 -1.359375 0.171875zm-0.21875 -9.0q-0.515625 0 -0.984375 0.1875q-0.46875 0.1875 -0.84375 0.5625q-0.359375 0.359375 -0.625 0.890625q-0.25 0.53125 -0.34375 1.234375l5.390625 0l0 -0.125q-0.03125 -0.5 -0.1875 -0.984375q-0.15625 -0.5 -0.484375 -0.890625q-0.3125 -0.390625 -0.796875 -0.625q-0.46875 -0.25 -1.125 -0.25zm9.242447 9.96875l-1.53125 0l5.640625 -14.671875l1.53125 0l-5.640625 14.671875zm10.476822 -11.1875l0.125 1.484375q0.546875 -0.78125 1.34375 -1.21875q0.796875 -0.453125 1.78125 -0.453125q0.78125 0 1.421875 0.21875q0.65625 0.21875 1.109375 0.703125q0.453125 0.46875 0.6875 1.203125q0.25 0.71875 0.25 1.71875l0 6.375l-1.703125 0l0 -6.34375q0 -0.65625 -0.15625 -1.125q-0.140625 -0.46875 -0.4375 -0.75q-0.296875 -0.28125 -0.71875 -0.40625q-0.421875 -0.140625 -0.96875 -0.140625q-0.859375 0 -1.515625 0.4375q-0.65625 0.421875 -1.046875 1.125l0 7.203125l-1.71875 0l0 -10.03125l1.546875 0zm9.336197 4.921875q0 -1.109375 0.265625 -2.046875q0.28125 -0.953125 0.796875 -1.625q0.53125 -0.6875 1.265625 -1.0625q0.75 -0.375 1.6875 -0.375q0.921875 0 1.625 0.328125q0.703125 0.328125 1.1875 0.953125l0.078125 -1.09375l1.5625 0l0 9.8125q0 1.0 -0.3125 1.765625q-0.3125 0.765625 -0.875 1.296875q-0.546875 0.546875 -1.328125 0.828125q-0.78125 0.28125 -1.734375 0.28125q-0.390625 0 -0.890625 -0.09375q-0.5 -0.078125 -1.015625 -0.28125q-0.515625 -0.203125 -1.0 -0.546875q-0.46875 -0.328125 -0.8125 -0.8125l0.890625 -1.03125q0.3125 0.375 0.640625 0.640625q0.34375 0.265625 0.6875 0.421875q0.34375 0.15625 0.6875 0.21875q0.34375 0.078125 0.6875 0.078125q0.609375 0 1.09375 -0.171875q0.5 -0.171875 0.84375 -0.515625q0.359375 -0.34375 0.53125 -0.84375q0.1875 -0.5 0.1875 -1.140625l0 -0.875q-0.5 0.578125 -1.1875 0.890625q-0.671875 0.296875 -1.578125 0.296875q-0.90625 0 -1.65625 -0.390625q-0.734375 -0.390625 -1.25 -1.078125q-0.515625 -0.6875 -0.796875 -1.609375q-0.28125 -0.9375 -0.28125 -2.015625l0 -0.203125zm1.71875 0.203125q0 0.734375 0.15625 1.390625q0.15625 0.65625 0.484375 1.15625q0.328125 0.5 0.828125 0.796875q0.515625 0.296875 1.234375 0.296875q0.4375 0 0.796875 -0.109375q0.359375 -0.109375 0.640625 -0.296875q0.28125 -0.203125 0.5 -0.46875q0.234375 -0.265625 0.390625 -0.59375l0 -4.609375q-0.15625 -0.3125 -0.390625 -0.5625q-0.21875 -0.265625 -0.515625 -0.453125q-0.28125 -0.1875 -0.640625 -0.296875q-0.34375 -0.109375 -0.765625 -0.109375q-0.71875 0 -1.234375 0.296875q-0.515625 0.296875 -0.84375 0.8125q-0.328125 0.5 -0.484375 1.171875q-0.15625 0.65625 -0.15625 1.375l0 0.203125zm10.070572 -5.125l5.125 0l0 8.546875l3.265625 0l0 1.484375l-8.390625 0l0 -1.484375l3.40625 0l0 -7.0625l-3.40625 0l0 -1.484375zm3.1875 -2.640625q0 -0.421875 0.25 -0.71875q0.25 -0.296875 0.78125 -0.296875q0.5 0 0.765625 0.296875q0.265625 0.296875 0.265625 0.71875q0 0.421875 -0.265625 0.703125q-0.265625 0.265625 -0.765625 0.265625q-0.53125 0 -0.78125 -0.265625q-0.25 -0.28125 -0.25 -0.703125zm9.273697 2.640625l0.125 1.484375q0.546875 -0.78125 1.34375 -1.21875q0.796875 -0.453125 1.78125 -0.453125q0.78125 0 1.421875 0.21875q0.65625 0.21875 1.109375 0.703125q0.453125 0.46875 0.6875 1.203125q0.25 0.71875 0.25 1.71875l0 6.375l-1.703125 0l0 -6.34375q0 -0.65625 -0.15625 -1.125q-0.140625 -0.46875 -0.4375 -0.75q-0.296875 -0.28125 -0.71875 -0.40625q-0.421875 -0.140625 -0.96875 -0.140625q-0.859375 0 -1.515625 0.4375q-0.65625 0.421875 -1.046875 1.125l0 7.203125l-1.71875 0l0 -10.03125l1.546875 0zm13.804947 3.71875l2.671875 -3.71875l2.015625 0l-3.734375 4.953125l3.84375 5.078125l-1.984375 0l-2.78125 -3.828125l-2.765625 3.828125l-2.015625 0l3.84375 -5.078125l-3.734375 -4.953125l1.984375 0l2.65625 3.71875zm9.304947 7.46875l-1.53125 0l5.640625 -14.671875l1.53125 0l-5.640625 14.671875zm10.648712 -9.703125q0.546875 -0.78125 1.328125 -1.21875q0.796875 -0.453125 1.765625 -0.453125q0.796875 0 1.4375 0.234375q0.640625 0.21875 1.09375 0.703125q0.46875 0.484375 0.703125 1.21875q0.25 0.734375 0.25 1.75l0 6.3125l-1.71875 0l0 -6.34375q0 -1.234375 -0.59375 -1.828125q-0.578125 -0.609375 -1.671875 -0.59375q-0.828125 0 -1.5 0.40625q-0.671875 0.40625 -1.09375 1.0625l0 7.296875l-1.71875 0l0 -14.25l1.71875 0l0 5.703125zm13.539307 -3.921875l0 2.4375l3.828125 0l0 1.3125l-3.828125 0l0 5.46875q0 0.578125 0.140625 0.96875q0.15625 0.375 0.421875 0.609375q0.265625 0.21875 0.59375 0.3125q0.34375 0.09375 0.71875 0.09375q0.28125 0 0.578125 -0.03125q0.296875 -0.046875 0.578125 -0.078125q0.28125 -0.046875 0.53125 -0.09375q0.25 -0.0625 0.40625 -0.09375l0.234375 1.203125q-0.203125 0.140625 -0.515625 0.234375q-0.296875 0.09375 -0.671875 0.15625q-0.359375 0.078125 -0.765625 0.109375q-0.390625 0.046875 -0.796875 0.046875q-0.671875 0 -1.25 -0.1875q-0.578125 -0.1875 -1.015625 -0.59375q-0.421875 -0.421875 -0.671875 -1.078125q-0.234375 -0.65625 -0.234375 -1.578125l0 -5.46875l-2.640625 0l0 -1.3125l2.640625 0l0 -2.4375l1.71875 0zm7.929962 2.4375l0.046875 0.9375q0.296875 -0.53125 0.796875 -0.828125q0.5 -0.296875 1.203125 -0.296875q1.375 0 1.84375 1.078125q0.296875 -0.484375 0.78125 -0.78125q0.5 -0.296875 1.1875 -0.296875q1.109375 0 1.703125 0.671875q0.59375 0.671875 0.59375 2.046875l0 7.5l-1.640625 0l0 -7.515625q0 -1.265625 -1.15625 -1.25q-0.3125 0 -0.53125 0.09375q-0.21875 0.078125 -0.375 0.21875q-0.140625 0.140625 -0.234375 0.328125q-0.078125 0.1875 -0.109375 0.390625l0 7.734375l-1.625 0l0 -7.53125q0 -0.59375 -0.28125 -0.921875q-0.265625 -0.328125 -0.84375 -0.3125q-0.53125 0 -0.828125 0.21875q-0.296875 0.203125 -0.4375 0.5625l0 7.984375l-1.640625 0l0 -10.03125l1.546875 0zm10.679932 -4.21875l5.125 0l0 12.765625l3.265625 0l0 1.484375l-8.390625 0l0 -1.484375l3.40625 0l0 -11.265625l-3.40625 0l0 -1.5zm13.179962 15.40625l-1.53125 0l5.640625 -14.671875l1.53125 0l-5.640625 14.671875z" fill-rule="nonzero"></path><path fill="#d9ead3" d="m65.2336 228.80849l0 0c0 -2.4469147 1.9836197 -4.4305267 4.4305344 -4.4305267l260.52475 0c1.1750793 0 2.302002 0.46678162 3.1328735 1.2976685c0.8309021 0.83088684 1.2976685 1.9578094 1.2976685 3.1328583l0 17.721603c0 2.4469147 -1.9836121 4.430542 -4.430542 4.430542l-260.52475 0l0 0c-2.4469147 0 -4.4305344 -1.9836273 -4.4305344 -4.430542z" fill-rule="evenodd"></path><path stroke="#000000" stroke-width="1.0" stroke-linejoin="round" stroke-linecap="butt" d="m65.2336 228.80849l0 0c0 -2.4469147 1.9836197 -4.4305267 4.4305344 -4.4305267l260.52475 0c1.1750793 0 2.302002 0.46678162 3.1328735 1.2976685c0.8309021 0.83088684 1.2976685 1.9578094 1.2976685 3.1328583l0 17.721603c0 2.4469147 -1.9836121 4.430542 -4.430542 4.430542l-260.52475 0l0 0c-2.4469147 0 -4.4305344 -1.9836273 -4.4305344 -4.430542z" fill-rule="evenodd"></path><path fill="#000000" d="m79.40626 245.74554l-1.53125 0l5.640625 -14.671875l1.53125 0l-5.640625 14.671875zm10.648697 -9.703125q0.546875 -0.78125 1.328125 -1.21875q0.796875 -0.453125 1.765625 -0.453125q0.796875 0 1.4375 0.234375q0.640625 0.21875 1.09375 0.703125q0.46875 0.484375 0.703125 1.21875q0.25 0.734375 0.25 1.75l0 6.3125l-1.71875 0l0 -6.34375q0 -1.234375 -0.59375 -1.828125q-0.578125 -0.609375 -1.671875 -0.59375q-0.828125 0 -1.5 0.40625q-0.671875 0.40625 -1.09375 1.0625l0 7.296875l-1.71875 0l0 -14.25l1.71875 0l0 5.703125zm13.539322 -3.921875l0 2.4375l3.828125 0l0 1.3125l-3.828125 0l0 5.46875q0 0.578125 0.140625 0.96875q0.15625 0.375 0.421875 0.609375q0.265625 0.21875 0.59375 0.3125q0.34375 0.09375 0.71875 0.09375q0.28125 0 0.578125 -0.03125q0.296875 -0.046875 0.578125 -0.078125q0.28125 -0.046875 0.53125 -0.09375q0.25 -0.0625 0.40625 -0.09375l0.234375 1.203125q-0.203125 0.140625 -0.515625 0.234375q-0.296875 0.09375 -0.671875 0.15625q-0.359375 0.078125 -0.765625 0.109375q-0.390625 0.046875 -0.796875 0.046875q-0.671875 0 -1.25 -0.1875q-0.578125 -0.1875 -1.015625 -0.59375q-0.421875 -0.421875 -0.671875 -1.078125q-0.234375 -0.65625 -0.234375 -1.578125l0 -5.46875l-2.640625 0l0 -1.3125l2.640625 0l0 -2.4375l1.71875 0zm7.929947 2.4375l0.046875 0.9375q0.296875 -0.53125 0.796875 -0.828125q0.5 -0.296875 1.203125 -0.296875q1.375 0 1.84375 1.078125q0.296875 -0.484375 0.78125 -0.78125q0.5 -0.296875 1.1875 -0.296875q1.109375 0 1.703125 0.671875q0.59375 0.671875 0.59375 2.046875l0 7.5l-1.640625 0l0 -7.515625q0 -1.265625 -1.15625 -1.25q-0.3125 0 -0.53125 0.09375q-0.21875 0.078125 -0.375 0.21875q-0.140625 0.140625 -0.234375 0.328125q-0.078125 0.1875 -0.109375 0.390625l0 7.734375l-1.625 0l0 -7.53125q0 -0.59375 -0.28125 -0.921875q-0.265625 -0.328125 -0.84375 -0.3125q-0.53125 0 -0.828125 0.21875q-0.296875 0.203125 -0.4375 0.5625l0 7.984375l-1.640625 0l0 -10.03125l1.546875 0zm10.679947 -4.21875l5.125 0l0 12.765625l3.2656174 0l0 1.484375l-8.390617 0l0 -1.484375l3.40625 0l0 -11.265625l-3.40625 0l0 -1.5zm13.179939 15.40625l-1.53125 0l5.640625 -14.671875l1.53125 0l-5.640625 14.671875z" fill-rule="nonzero"></path><path fill="#d9ead3" d="m394.063 184.25993l0 0c0 -2.4469147 1.9836121 -4.430542 4.430542 -4.430542l163.01294 0c1.1750488 0 2.302002 0.46679688 3.1328735 1.2976837c0.8308716 0.83088684 1.2976685 1.9578094 1.2976685 3.1328583l0 17.721603c0 2.4469147 -1.9836426 4.430542 -4.430542 4.430542l-163.01294 0c-2.44693 0 -4.430542 -1.9836273 -4.430542 -4.430542z" fill-rule="evenodd"></path><path stroke="#000000" stroke-width="1.0" stroke-linejoin="round" stroke-linecap="butt" d="m394.063 184.25993l0 0c0 -2.4469147 1.9836121 -4.430542 4.430542 -4.430542l163.01294 0c1.1750488 0 2.302002 0.46679688 3.1328735 1.2976837c0.8308716 0.83088684 1.2976685 1.9578094 1.2976685 3.1328583l0 17.721603c0 2.4469147 -1.9836426 4.430542 -4.430542 4.430542l-163.01294 0c-2.44693 0 -4.430542 -1.9836273 -4.430542 -4.430542z" fill-rule="evenodd"></path><path fill="#000000" d="m414.5467 200.04073l-5.28125 -13.59375l1.953125 0l3.53125 9.875q0.4375 1.1875 0.71875 2.21875q0.3125 -1.109375 0.734375 -2.21875l3.671875 -9.875l1.84375 0l-5.328125 13.59375l-1.84375 0zm7.709198 -4.921875q0 -2.734375 1.53125 -4.0625q1.265625 -1.09375 3.09375 -1.09375q2.03125 0 3.3125 1.34375q1.296875 1.328125 1.296875 3.671875q0 1.90625 -0.578125 3.0q-0.5625 1.078125 -1.65625 1.6875q-1.078125 0.59375 -2.375 0.59375q-2.0625 0 -3.34375 -1.328125q-1.28125 -1.328125 -1.28125 -3.8125zm1.71875 0q0 1.890625 0.828125 2.828125q0.828125 0.9375 2.078125 0.9375q1.25 0 2.0625 -0.9375q0.828125 -0.953125 0.828125 -2.890625q0 -1.828125 -0.828125 -2.765625q-0.828125 -0.9375 -2.0625 -0.9375q-1.25 0 -2.078125 0.9375q-0.828125 0.9375 -0.828125 2.828125zm9.250732 4.921875l0 -13.59375l1.671875 0l0 13.59375l-1.671875 0zm10.629181 0l0 -1.453125q-1.140625 1.671875 -3.125 1.671875q-0.859375 0 -1.625 -0.328125q-0.75 -0.34375 -1.125 -0.84375q-0.359375 -0.5 -0.515625 -1.234375q-0.09375 -0.5 -0.09375 -1.5625l0 -6.109375l1.671875 0l0 5.46875q0 1.3125 0.09375 1.765625q0.15625 0.65625 0.671875 1.03125q0.515625 0.375 1.265625 0.375q0.75 0 1.40625 -0.375q0.65625 -0.390625 0.921875 -1.046875q0.28125 -0.671875 0.28125 -1.9375l0 -5.28125l1.671875 0l0 9.859375l-1.5 0zm3.9226074 0l0 -9.859375l1.5 0l0 1.390625q0.453125 -0.71875 1.21875 -1.15625q0.78125 -0.453125 1.765625 -0.453125q1.09375 0 1.796875 0.453125q0.703125 0.453125 0.984375 1.28125q1.171875 -1.734375 3.046875 -1.734375q1.46875 0 2.25 0.8125q0.796875 0.8125 0.796875 2.5l0 6.765625l-1.671875 0l0 -6.203125q0 -1.0 -0.15625 -1.4375q-0.15625 -0.453125 -0.59375 -0.71875q-0.421875 -0.265625 -1.0 -0.265625q-1.03125 0 -1.71875 0.6875q-0.6875 0.6875 -0.6875 2.21875l0 5.71875l-1.671875 0l0 -6.40625q0 -1.109375 -0.40625 -1.65625q-0.40625 -0.5625 -1.34375 -0.5625q-0.703125 0 -1.3125 0.375q-0.59375 0.359375 -0.859375 1.078125q-0.265625 0.71875 -0.265625 2.0625l0 5.109375l-1.671875 0zm22.290802 -3.171875l1.71875 0.21875q-0.40625 1.5 -1.515625 2.34375q-1.09375 0.828125 -2.8125 0.828125q-2.15625 0 -3.421875 -1.328125q-1.265625 -1.328125 -1.265625 -3.734375q0 -2.484375 1.265625 -3.859375q1.28125 -1.375 3.328125 -1.375q1.984375 0 3.234375 1.34375q1.25 1.34375 1.25 3.796875q0 0.140625 -0.015625 0.4375l-7.34375 0q0.09375 1.625 0.921875 2.484375q0.828125 0.859375 2.0625 0.859375q0.90625 0 1.546875 -0.46875q0.65625 -0.484375 1.046875 -1.546875zm-5.484375 -2.703125l5.5 0q-0.109375 -1.234375 -0.625 -1.859375q-0.796875 -0.96875 -2.078125 -0.96875q-1.140625 0 -1.9375 0.78125q-0.78125 0.765625 -0.859375 2.046875z" fill-rule="nonzero"></path><path fill="#000000" d="m491.18613 188.7751l-1.390625 0l-2.3125 -2.46875l2.078125 0l1.625 2.46875zm6.9768066 2.71875q0.546875 -0.78125 1.328125 -1.21875q0.796875 -0.453125 1.765625 -0.453125q0.796875 0 1.4375 0.234375q0.640625 0.21875 1.09375 0.703125q0.46875 0.484375 0.703125 1.21875q0.25 0.734375 0.25 1.75l0 6.3125l-1.71875 0l0 -6.34375q0 -1.234375 -0.59375 -1.828125q-0.578125 -0.609375 -1.671875 -0.59375q-0.828125 0 -1.5 0.40625q-0.671875 0.40625 -1.09375 1.0625l0 7.296875l-1.71875 0l0 -14.25l1.71875 0l0 5.703125zm13.539337 -3.921875l0 2.4375l3.828125 0l0 1.3125l-3.828125 0l0 5.46875q0 0.578125 0.140625 0.96875q0.15625 0.375 0.421875 0.609375q0.265625 0.21875 0.59375 0.3125q0.34375 0.09375 0.71875 0.09375q0.28125 0 0.578125 -0.03125q0.296875 -0.046875 0.578125 -0.078125q0.28125 -0.046875 0.53125 -0.09375q0.25 -0.0625 0.40625 -0.09375l0.234375 1.203125q-0.203125 0.140625 -0.515625 0.234375q-0.296875 0.09375 -0.671875 0.15625q-0.359375 0.078125 -0.765625 0.109375q-0.390625 0.046875 -0.796875 0.046875q-0.671875 0 -1.25 -0.1875q-0.578125 -0.1875 -1.015625 -0.59375q-0.421875 -0.421875 -0.671875 -1.078125q-0.234375 -0.65625 -0.234375 -1.578125l0 -5.46875l-2.640625 0l0 -1.3125l2.640625 0l0 -2.4375l1.71875 0zm7.9299316 2.4375l0.046875 0.9375q0.296875 -0.53125 0.796875 -0.828125q0.5 -0.296875 1.203125 -0.296875q1.375 0 1.84375 1.078125q0.296875 -0.484375 0.78125 -0.78125q0.5 -0.296875 1.1875 -0.296875q1.109375 0 1.703125 0.671875q0.59375 0.671875 0.59375 2.046875l0 7.5l-1.640625 0l0 -7.515625q0 -1.265625 -1.15625 -1.25q-0.3125 0 -0.53125 0.09375q-0.21875 0.078125 -0.375 0.21875q-0.140625 0.140625 -0.234375 0.328125q-0.078125 0.1875 -0.109375 0.390625l0 7.734375l-1.625 0l0 -7.53125q0 -0.59375 -0.28125 -0.921875q-0.265625 -0.328125 -0.84375 -0.3125q-0.53125 0 -0.828125 0.21875q-0.296875 0.203125 -0.4375 0.5625l0 7.984375l-1.640625 0l0 -10.03125l1.546875 0zm10.679932 -4.21875l5.125 0l0 12.765625l3.265625 0l0 1.484375l-8.390625 0l0 -1.484375l3.40625 0l0 -11.265625l-3.40625 0l0 -1.5zm16.851868 2.984375l-1.390625 0l-2.3125 -2.46875l2.078125 0l1.625 2.46875z" fill-rule="nonzero"></path><path fill="#000000" fill-opacity="0.0" d="m334.61942 154.63255l145.38583 0l0 25.196838" fill-rule="evenodd"></path><path stroke="#000000" stroke-width="2.0" stroke-linejoin="round" stroke-linecap="butt" d="m346.61942 154.63255l133.38583 0l0 25.196838" fill-rule="evenodd"></path><path fill="#000000" stroke="#000000" stroke-width="2.0" stroke-linecap="butt" d="m346.61942 151.32909l-9.076202 3.3034668l9.076202 3.3034515z" fill-rule="evenodd"></path><path fill="#000000" fill-opacity="0.0" d="m334.61942 237.6693l145.38583 0l0 -31.244095" fill-rule="evenodd"></path><path stroke="#000000" stroke-width="2.0" stroke-linejoin="round" stroke-linecap="butt" d="m334.61942 237.6693l145.38583 0l0 -19.244095" fill-rule="evenodd"></path><path fill="#000000" stroke="#000000" stroke-width="2.0" stroke-linecap="butt" d="m483.30872 218.4252l-3.3034668 -9.076202l-3.3034668 9.076202z" fill-rule="evenodd"></path><path fill="#000000" fill-opacity="0.0" d="m414.75067 115.385826l82.17322 0l0 31.244102l-82.17322 0z" fill-rule="evenodd"></path><path fill="#000000" d="m433.73767 142.30583l0 -9.859375l1.5 0l0 1.5q0.578125 -1.046875 1.0625 -1.375q0.484375 -0.34375 1.078125 -0.34375q0.84375 0 1.71875 0.546875l-0.578125 1.546875q-0.609375 -0.359375 -1.234375 -0.359375q-0.546875 0 -0.984375 0.328125q-0.421875 0.328125 -0.609375 0.90625q-0.28125 0.890625 -0.28125 1.953125l0 5.15625l-1.671875 0zm12.978302 -3.171875l1.71875 0.21875q-0.40625 1.5 -1.515625 2.34375q-1.09375 0.828125 -2.8125 0.828125q-2.15625 0 -3.421875 -1.328125q-1.265625 -1.328125 -1.265625 -3.734375q0 -2.484375 1.265625 -3.859375q1.28125 -1.375 3.328125 -1.375q1.984375 0 3.234375 1.34375q1.25 1.34375 1.25 3.796875q0 0.140625 -0.015625 0.4375l-7.34375 0q0.09375 1.625 0.921875 2.484375q0.828125 0.859375 2.0625 0.859375q0.90625 0 1.546875 -0.46875q0.65625 -0.484375 1.046875 -1.546875zm-5.484375 -2.703125l5.5 0q-0.109375 -1.234375 -0.625 -1.859375q-0.796875 -0.96875 -2.078125 -0.96875q-1.140625 0 -1.9375 0.78125q-0.78125 0.765625 -0.859375 2.046875zm15.547577 4.65625q-0.9375 0.796875 -1.796875 1.125q-0.859375 0.3125 -1.84375 0.3125q-1.609375 0 -2.484375 -0.78125q-0.875 -0.796875 -0.875 -2.03125q0 -0.734375 0.328125 -1.328125q0.328125 -0.59375 0.859375 -0.953125q0.53125 -0.359375 1.203125 -0.546875q0.5 -0.140625 1.484375 -0.25q2.03125 -0.25 2.984375 -0.578125q0 -0.34375 0 -0.4375q0 -1.015625 -0.46875 -1.4375q-0.640625 -0.5625 -1.90625 -0.5625q-1.171875 0 -1.734375 0.40625q-0.5625 0.40625 -0.828125 1.46875l-1.640625 -0.234375q0.234375 -1.046875 0.734375 -1.6875q0.515625 -0.640625 1.46875 -0.984375q0.96875 -0.359375 2.25 -0.359375q1.265625 0 2.046875 0.296875q0.78125 0.296875 1.15625 0.75q0.375 0.453125 0.515625 1.140625q0.09375 0.421875 0.09375 1.53125l0 2.234375q0 2.328125 0.09375 2.953125q0.109375 0.609375 0.4375 1.171875l-1.75 0q-0.265625 -0.515625 -0.328125 -1.21875zm-0.140625 -3.71875q-0.90625 0.359375 -2.734375 0.625q-1.03125 0.140625 -1.453125 0.328125q-0.421875 0.1875 -0.65625 0.546875q-0.234375 0.359375 -0.234375 0.796875q0 0.671875 0.5 1.125q0.515625 0.4375 1.484375 0.4375q0.96875 0 1.71875 -0.421875q0.75 -0.4375 1.109375 -1.15625q0.265625 -0.578125 0.265625 -1.671875l0 -0.609375zm10.469482 4.9375l0 -1.25q-0.9375 1.46875 -2.75 1.46875q-1.171875 0 -2.171875 -0.640625q-0.984375 -0.65625 -1.53125 -1.8125q-0.53125 -1.171875 -0.53125 -2.6875q0 -1.46875 0.484375 -2.671875q0.5 -1.203125 1.46875 -1.84375q0.984375 -0.640625 2.203125 -0.640625q0.890625 0 1.578125 0.375q0.703125 0.375 1.140625 0.984375l0 -4.875l1.65625 0l0 13.59375l-1.546875 0zm-5.28125 -4.921875q0 1.890625 0.796875 2.828125q0.8125 0.9375 1.890625 0.9375q1.09375 0 1.859375 -0.890625q0.765625 -0.890625 0.765625 -2.734375q0 -2.015625 -0.78125 -2.953125q-0.78125 -0.953125 -1.921875 -0.953125q-1.109375 0 -1.859375 0.90625q-0.75 0.90625 -0.75 2.859375zm8.594452 1.984375l1.65625 -0.265625q0.140625 1.0 0.765625 1.53125q0.640625 0.515625 1.78125 0.515625q1.15625 0 1.703125 -0.46875q0.5625 -0.46875 0.5625 -1.09375q0 -0.5625 -0.484375 -0.890625q-0.34375 -0.21875 -1.703125 -0.5625q-1.84375 -0.46875 -2.5625 -0.796875q-0.703125 -0.34375 -1.078125 -0.9375q-0.359375 -0.609375 -0.359375 -1.328125q0 -0.65625 0.296875 -1.21875q0.3125 -0.5625 0.828125 -0.9375q0.390625 -0.28125 1.0625 -0.484375q0.671875 -0.203125 1.4375 -0.203125q1.171875 0 2.046875 0.34375q0.875 0.328125 1.28125 0.90625q0.421875 0.5625 0.578125 1.515625l-1.625 0.21875q-0.109375 -0.75 -0.65625 -1.171875q-0.53125 -0.4375 -1.5 -0.4375q-1.15625 0 -1.640625 0.390625q-0.484375 0.375 -0.484375 0.875q0 0.328125 0.203125 0.59375q0.203125 0.265625 0.640625 0.4375q0.25 0.09375 1.46875 0.4375q1.765625 0.46875 2.46875 0.765625q0.703125 0.296875 1.09375 0.875q0.40625 0.578125 0.40625 1.4375q0 0.828125 -0.484375 1.578125q-0.484375 0.734375 -1.40625 1.140625q-0.921875 0.390625 -2.078125 0.390625q-1.921875 0 -2.9375 -0.796875q-1.0 -0.796875 -1.28125 -2.359375z" fill-rule="nonzero"></path><path fill="#000000" fill-opacity="0.0" d="m414.75067 229.6798l82.17322 0l0 31.244095l-82.17322 0z" fill-rule="evenodd"></path><path fill="#000000" d="m434.5566 256.5998l-3.015625 -9.859375l1.71875 0l1.5625 5.6875l0.59375 2.125q0.03125 -0.15625 0.5 -2.03125l1.578125 -5.78125l1.71875 0l1.46875 5.71875l0.484375 1.890625l0.578125 -1.90625l1.6875 -5.703125l1.625 0l-3.078125 9.859375l-1.734375 0l-1.578125 -5.90625l-0.375 -1.671875l-2.0 7.578125l-1.734375 0zm11.629181 0l0 -9.859375l1.5 0l0 1.5q0.578125 -1.046875 1.0625 -1.375q0.484375 -0.34375 1.078125 -0.34375q0.84375 0 1.71875 0.546875l-0.578125 1.546875q-0.609375 -0.359375 -1.234375 -0.359375q-0.546875 0 -0.984375 0.328125q-0.421875 0.328125 -0.609375 0.90625q-0.28125 0.890625 -0.28125 1.953125l0 5.15625l-1.671875 0zm6.243927 -11.6875l0 -1.90625l1.671875 0l0 1.90625l-1.671875 0zm0 11.6875l0 -9.859375l1.671875 0l0 9.859375l-1.671875 0zm7.7854614 -1.5l0.234375 1.484375q-0.703125 0.140625 -1.265625 0.140625q-0.90625 0 -1.40625 -0.28125q-0.5 -0.296875 -0.703125 -0.75q-0.203125 -0.46875 -0.203125 -1.984375l0 -5.65625l-1.234375 0l0 -1.3125l1.234375 0l0 -2.4375l1.65625 -1.0l0 3.4375l1.6875 0l0 1.3125l-1.6875 0l0 5.75q0 0.71875 0.078125 0.921875q0.09375 0.203125 0.296875 0.328125q0.203125 0.125 0.578125 0.125q0.265625 0 0.734375 -0.078125zm8.277039 -1.671875l1.71875 0.21875q-0.40625 1.5 -1.515625 2.34375q-1.09375 0.828125 -2.8125 0.828125q-2.15625 0 -3.421875 -1.328125q-1.265625 -1.328125 -1.265625 -3.734375q0 -2.484375 1.265625 -3.859375q1.28125 -1.375 3.328125 -1.375q1.984375 0 3.234375 1.34375q1.25 1.34375 1.25 3.796875q0 0.140625 -0.015625 0.4375l-7.34375 0q0.09375 1.625 0.921875 2.484375q0.828125 0.859375 2.0625 0.859375q0.90625 0 1.546875 -0.46875q0.65625 -0.484375 1.046875 -1.546875zm-5.484375 -2.703125l5.5 0q-0.109375 -1.234375 -0.625 -1.859375q-0.796875 -0.96875 -2.078125 -0.96875q-1.140625 0 -1.9375 0.78125q-0.78125 0.765625 -0.859375 2.046875zm8.438232 2.9375l1.65625 -0.265625q0.140625 1.0 0.765625 1.53125q0.640625 0.515625 1.78125 0.515625q1.15625 0 1.703125 -0.46875q0.5625 -0.46875 0.5625 -1.09375q0 -0.5625 -0.484375 -0.890625q-0.34375 -0.21875 -1.703125 -0.5625q-1.84375 -0.46875 -2.5625 -0.796875q-0.703125 -0.34375 -1.078125 -0.9375q-0.359375 -0.609375 -0.359375 -1.328125q0 -0.65625 0.296875 -1.21875q0.3125 -0.5625 0.828125 -0.9375q0.390625 -0.28125 1.0625 -0.484375q0.671875 -0.203125 1.4375 -0.203125q1.171875 0 2.046875 0.34375q0.875 0.328125 1.28125 0.90625q0.421875 0.5625 0.578125 1.515625l-1.625 0.21875q-0.109375 -0.75 -0.65625 -1.171875q-0.53125 -0.4375 -1.5 -0.4375q-1.15625 0 -1.640625 0.390625q-0.484375 0.375 -0.484375 0.875q0 0.328125 0.203125 0.59375q0.203125 0.265625 0.640625 0.4375q0.25 0.09375 1.46875 0.4375q1.765625 0.46875 2.46875 0.765625q0.703125 0.296875 1.09375 0.875q0.40625 0.578125 0.40625 1.4375q0 0.828125 -0.484375 1.578125q-0.484375 0.734375 -1.40625 1.140625q-0.921875 0.390625 -2.078125 0.390625q-1.921875 0 -2.9375 -0.796875q-1.0 -0.796875 -1.28125 -2.359375z" fill-rule="nonzero"></path></g></svg>

